<svg width="201" height="182" viewBox="0 0 201 182" fill="none" xmlns="http://www.w3.org/2000/svg">
<path d="M168.822 59.7648C160.607 59.9353 153.564 57.2048 147.694 51.5734C141.823 45.9419 138.803 39.0185 138.633 30.8031C138.462 22.5877 141.193 15.5449 146.824 9.67476C152.456 3.80463 159.379 0.784324 167.594 0.613836C175.81 0.443347 182.853 3.17383 188.723 8.80527C194.593 14.4367 197.613 21.3602 197.784 29.5756C197.954 37.791 195.224 44.8337 189.592 50.7039C183.961 56.574 177.037 59.5943 168.822 59.7648ZM3.68255 181.545L0.409172 23.8088L119.697 21.3333C119.108 24.6331 118.848 27.9261 118.916 31.2123C118.984 34.4984 119.381 37.7778 120.106 41.0503C121.365 46.2843 123.356 51.1316 126.079 55.5922C128.802 60.0594 132.088 63.9791 135.939 67.3511L100.426 90.7724L20.5353 43.1166L20.9445 62.8336L100.835 110.489L152.164 76.8772C154.978 77.805 157.786 78.4865 160.59 78.9214C163.393 79.3564 166.274 79.5432 169.231 79.4818C174.489 79.3727 179.648 78.4437 184.707 76.6949C189.767 74.9462 194.398 72.3844 198.602 69.0095L200.852 177.453L3.68255 181.545Z" fill="#26AC73"/>
</svg>
