<svg width="185" height="184" viewBox="0 0 185 184" fill="none" xmlns="http://www.w3.org/2000/svg">
<path d="M184.161 90.6295C183.111 40.05 141.209 -0.148179 90.6296 0.901459C40.05 1.9511 -0.148119 43.853 0.901519 94.4325C1.82185 138.781 34.1087 175.054 76.0686 182.708L74.7756 120.4L56.4497 120.78L55.8792 93.2916L74.2052 92.9113L73.7298 70.0039C73.3628 52.3194 87.4501 37.635 105.135 37.2681L128.042 36.7927L128.612 64.2815L110.287 64.6618C105.247 64.7664 101.209 68.9753 101.314 74.0149L101.694 92.3409L129.183 91.7704L129.753 119.259L102.264 119.83L103.586 183.512C149.764 177.971 185.148 138.185 184.161 90.6295Z" fill="#26AC73"/>
</svg>
