<svg width="154" height="154" viewBox="0 0 154 154" fill="none" xmlns="http://www.w3.org/2000/svg">
<path d="M75.3696 0.584837C96.1192 0.154236 98.7097 0.176879 106.859 0.389783C115 0.602845 120.563 1.76332 125.475 3.55617C130.555 5.39136 134.856 7.93035 139.19 12.0807C143.153 15.8178 146.254 20.3735 148.277 25.4307C150.264 30.2563 151.662 35.7741 152.213 43.8995C152.74 52.0331 152.893 54.62 153.324 75.3696C153.755 96.1192 153.732 98.7097 153.519 106.859C153.306 115 152.138 120.563 150.353 125.475C148.547 130.614 145.637 135.296 141.828 139.19C138.09 143.152 133.535 146.252 128.478 148.277C123.653 150.264 118.135 151.662 110.009 152.213C101.876 152.74 99.2889 152.893 78.5393 153.324C57.7896 153.755 55.1991 153.732 47.0502 153.519C38.9089 153.306 33.3455 152.138 28.434 150.353C23.2953 148.545 18.6141 145.636 14.7186 141.828C10.7552 138.092 7.65445 133.536 5.63231 128.478C3.63739 123.653 2.24696 118.135 1.69633 110.009C1.16845 101.876 1.01544 99.2889 0.58484 78.5393C0.154239 57.7896 0.176882 55.1991 0.389786 47.0502C0.60269 38.9013 1.76332 33.3457 3.55617 28.434C5.36138 23.2942 8.27117 18.6126 12.0808 14.7186C15.8161 10.7539 20.3722 7.65292 25.4307 5.63231C30.2638 3.63723 35.7665 2.24712 43.8995 1.69633C52.0331 1.16844 54.62 1.01544 75.3696 0.584837ZM76.162 38.7696C66.0348 38.9798 56.4058 43.2044 49.3934 50.514C42.3809 57.8237 38.5595 67.6196 38.7696 77.7468C38.9798 87.8741 43.2044 97.503 50.514 104.515C57.8237 111.528 67.6196 115.349 77.7468 115.139C87.8741 114.929 97.503 110.704 104.515 103.395C111.528 96.0852 115.349 86.2892 115.139 76.162C114.929 66.0348 110.704 56.4058 103.395 49.3934C96.0852 42.3809 86.2892 38.5595 76.162 38.7696ZM125.763 35.8302C125.71 33.2984 124.654 30.8912 122.827 29.1381C120.999 27.385 118.55 26.4296 116.018 26.4821C113.486 26.5347 111.079 27.5908 109.326 29.4182C107.573 31.2457 106.618 33.6946 106.67 36.2265C106.723 38.7583 107.779 41.1655 109.606 42.9186C111.434 44.6717 113.883 45.6271 116.415 45.5745C118.946 45.522 121.354 44.4659 123.107 42.6384C124.86 40.811 125.815 38.362 125.763 35.8302ZM76.479 54.0435C82.5553 53.9174 88.4329 56.2103 92.8187 60.4178C97.2044 64.6252 99.7392 70.4026 99.8653 76.479C99.9914 82.5553 97.6985 88.4329 93.4911 92.8187C89.2836 97.2044 83.5062 99.7392 77.4299 99.8653C71.3535 99.9914 65.476 97.6985 61.0902 93.491C56.7044 89.2836 54.1696 83.5062 54.0435 77.4299C53.9174 71.3535 56.2103 65.476 60.4178 61.0902C64.6252 56.7044 70.4026 54.1696 76.479 54.0435Z" fill="#26AC73"/>
</svg>
