<svg width="70" height="70" viewBox="0 0 70 70" fill="none" xmlns="http://www.w3.org/2000/svg">
<path d="M54.7529 58.8087L38.5298 42.5856C37.0813 43.7444 35.4155 44.6618 33.5325 45.3377C31.6495 46.0137 29.6457 46.3517 27.5213 46.3517C22.2584 46.3517 17.8048 44.5285 14.1604 40.8822C10.516 37.2358 8.69285 32.7822 8.69092 27.5213C8.69092 22.2585 10.5141 17.8048 14.1604 14.1604C17.8067 10.516 22.2604 8.69288 27.5213 8.69095C32.7841 8.69095 37.2377 10.5141 40.8821 14.1604C44.5265 17.8068 46.3497 22.2604 46.3516 27.5213C46.3516 29.6458 46.0136 31.6495 45.3377 33.5325C44.6617 35.4156 43.7444 37.0813 42.5856 38.5298L58.8811 54.8253C59.4122 55.3564 59.6777 56.0083 59.6777 56.7808C59.6777 57.5533 59.388 58.2293 58.8086 58.8087C58.2775 59.3398 57.6016 59.6053 56.7808 59.6053C55.9599 59.6053 55.284 59.3398 54.7529 58.8087ZM27.5213 40.5577C31.1425 40.5577 34.221 39.2898 36.7568 36.754C39.2927 34.2182 40.5596 31.1406 40.5577 27.5213C40.5577 23.9001 39.2898 20.8216 36.7539 18.2857C34.2181 15.7499 31.1406 14.483 27.5213 14.4849C23.9001 14.4849 20.8215 15.7528 18.2857 18.2886C15.7499 20.8245 14.4829 23.902 14.4849 27.5213C14.4849 31.1425 15.7528 34.221 18.2886 36.7569C20.8244 39.2927 23.902 40.5596 27.5213 40.5577Z" fill="#37374D"/>
</svg>
